<svg width="28" height="27" viewBox="0 0 28 27" fill="none" xmlns="http://www.w3.org/2000/svg">
<g filter="url(#filter0_d_2593_6)">
<path d="M25.3176 0.163086H2.58119C1.52288 0.163086 0.665039 1.02093 0.665039 2.07924V24.8156C0.665039 25.8739 1.52288 26.7318 2.58119 26.7318H14.8575V16.4572H11.4067V12.4355H14.8575V9.47587C14.8575 6.04371 16.9528 4.17559 20.0145 4.17559C21.4808 4.17559 22.741 4.28485 23.1083 4.3337V7.92094H20.9972C19.3314 7.92094 19.0089 8.71249 19.0089 9.87419V12.4355H22.9916L22.4726 16.4572H19.0089V26.7318H25.3176C26.3759 26.7318 27.2337 25.8739 27.2337 24.8156V2.07924C27.2337 1.02093 26.3759 0.163086 25.3176 0.163086V0.163086Z" fill="#808080"/>
</g>
<defs>
<filter id="filter0_d_2593_6" x="-3.33496" y="0.163086" width="34.5687" height="34.5686" filterUnits="userSpaceOnUse" color-interpolation-filters="sRGB">
<feFlood flood-opacity="0" result="BackgroundImageFix"/>
<feColorMatrix in="SourceAlpha" type="matrix" values="0 0 0 0 0 0 0 0 0 0 0 0 0 0 0 0 0 0 127 0" result="hardAlpha"/>
<feOffset dy="4"/>
<feGaussianBlur stdDeviation="2"/>
<feComposite in2="hardAlpha" operator="out"/>
<feColorMatrix type="matrix" values="0 0 0 0 0 0 0 0 0 0 0 0 0 0 0 0 0 0 0.25 0"/>
<feBlend mode="normal" in2="BackgroundImageFix" result="effect1_dropShadow_2593_6"/>
<feBlend mode="normal" in="SourceGraphic" in2="effect1_dropShadow_2593_6" result="shape"/>
</filter>
</defs>
</svg>
