<svg width="27" height="27" viewBox="0 0 27 27" fill="none" xmlns="http://www.w3.org/2000/svg">
<path d="M25.941 1.16649C25.2721 0.497454 24.4706 0.163086 23.5368 0.163086H3.78306C2.84896 0.163086 2.04766 0.497576 1.37862 1.16649C0.709704 1.83523 0.375336 2.63665 0.375336 3.57057V23.3241C0.375336 24.2579 0.709644 25.0595 1.37862 25.7283C2.04766 26.3972 2.84914 26.7318 3.78306 26.7318H23.5366C24.4702 26.7318 25.2719 26.3972 25.9408 25.7283C26.6098 25.0595 26.9439 24.2579 26.9439 23.3241V3.57057C26.9439 2.63647 26.6098 1.83547 25.941 1.16649ZM9.91511 9.73703C10.9586 8.72817 12.2127 8.22349 13.6773 8.22349C15.1531 8.22349 16.4128 8.72817 17.4566 9.73703C18.5004 10.7461 19.0219 11.9656 19.0219 13.3955C19.0219 14.8252 18.5004 16.0448 17.4566 17.0536C16.4128 18.0629 15.1535 18.5675 13.6773 18.5675C12.2128 18.5675 10.9588 18.0624 9.91511 17.0536C8.87135 16.0447 8.34953 14.8252 8.34953 13.3955C8.34953 11.9656 8.87135 10.7461 9.91511 9.73703ZM23.9347 22.6152C23.9347 22.9148 23.8306 23.1655 23.6232 23.3674C23.4152 23.5692 23.1676 23.6701 22.8791 23.6701H4.38855C4.08877 23.6701 3.83777 23.5692 3.63614 23.3674C3.43421 23.1659 3.33334 22.9148 3.33334 22.6152V11.4061H5.77219C5.54166 12.1327 5.42637 12.8882 5.42637 13.6721C5.42637 15.8867 6.23348 17.7747 7.84789 19.3375C9.46248 20.8998 11.4055 21.6812 13.6772 21.6812C15.1763 21.6812 16.56 21.3236 17.8289 20.6087C19.0974 19.8934 20.1 18.9221 20.8385 17.6938C21.5766 16.4657 21.9456 15.125 21.9456 13.6722C21.9456 12.8882 21.8299 12.133 21.5994 11.4062H23.9348V22.6153H23.9347V22.6152ZM23.9347 7.16829C23.9347 7.50271 23.8194 7.78528 23.5884 8.01587C23.3578 8.24664 23.0754 8.36187 22.7408 8.36187H19.7312C19.397 8.36187 19.1141 8.24658 18.8836 8.01587C18.653 7.78528 18.5378 7.50271 18.5378 7.16829V4.31449C18.5378 3.99157 18.653 3.71197 18.8836 3.47551C19.1142 3.23917 19.397 3.12085 19.7312 3.12085H22.7408C23.0754 3.12085 23.3579 3.23911 23.5884 3.47551C23.8193 3.71197 23.9347 3.99157 23.9347 4.31449V7.16829Z" fill="#808080"/>
</svg>
