<svg width="27" height="27" viewBox="0 0 27 27" fill="none" xmlns="http://www.w3.org/2000/svg">
<g clip-path="url(#clip0_1_3962)">
<path d="M26.6523 5.20939C25.6643 5.64279 24.6115 5.93006 23.5139 6.06955C24.6431 5.39537 25.5049 4.33594 25.9101 3.05898C24.8573 3.68667 23.6949 4.13003 22.4561 4.37745C21.4565 3.31304 20.0317 2.65381 18.4775 2.65381C15.4619 2.65381 13.0342 5.10145 13.0342 8.10205C13.0342 8.53379 13.0707 8.94893 13.1604 9.34414C8.6321 9.12329 4.62521 6.95296 1.93346 3.64681C1.46353 4.46214 1.18788 5.39537 1.18788 6.39999C1.18788 8.28637 2.1593 9.95854 3.60729 10.9266C2.73219 10.91 1.87368 10.656 1.14637 10.2558C1.14637 10.2724 1.14637 10.294 1.14637 10.3156C1.14637 12.9625 3.0344 15.161 5.51027 15.6675C5.06691 15.7887 4.58369 15.8468 4.08221 15.8468C3.73349 15.8468 3.38146 15.8269 3.05101 15.7538C3.75674 17.9109 5.75936 19.4967 8.14058 19.5482C6.28741 20.9978 3.93442 21.8713 1.38715 21.8713C0.940459 21.8713 0.512038 21.8514 0.0836182 21.7966C2.49639 23.3525 5.35584 24.2409 8.43947 24.2409C18.4625 24.2409 23.9423 15.9382 23.9423 8.74136C23.9423 8.50058 23.934 8.26811 23.9224 8.03729C25.0034 7.27012 25.9117 6.31199 26.6523 5.20939Z" fill="#808080"/>
</g>
<defs>
<clipPath id="clip0_1_3962">
<rect width="26.5687" height="26.5687" fill="white" transform="translate(0.0836182 0.163086)"/>
</clipPath>
</defs>
</svg>
