<svg width="21" height="23" viewBox="0 0 21 23" fill="none" xmlns="http://www.w3.org/2000/svg">
<path d="M13.0491 15.3407C12.992 14.5656 12.976 13.788 13.0011 13.0113L13.0002 13.0454C13.6944 12.3258 14.1274 11.3942 14.2299 10.3996L14.2318 10.3802C14.5445 10.3544 15.0381 10.05 15.182 8.84332C15.2254 8.6355 15.209 8.41963 15.1347 8.22075C15.0604 8.02186 14.9313 7.84812 14.7622 7.71968L14.7595 7.71784C15.2687 6.18645 16.3259 1.44836 12.8028 0.959425C12.4402 0.322883 11.5122 0 10.3055 0C5.47795 0.0885623 4.89584 3.64489 5.9512 7.71784C5.7808 7.84746 5.65082 8.02292 5.57649 8.2237C5.50216 8.42448 5.48654 8.64228 5.53146 8.85162L5.53053 8.84424C5.67814 10.0491 6.168 10.3553 6.48073 10.3812C6.59043 11.3869 7.03717 12.3259 7.74828 13.0454C7.77167 13.8358 7.75381 14.6269 7.69478 15.4154L7.69939 15.3407C6.74181 17.909 0.295208 17.1875 0 22.1406H20.7181C20.421 17.1875 14.0039 17.909 13.0482 15.3407H13.0491Z" fill="white"/>
</svg>
