<svg width="28" height="27" viewBox="0 0 28 27" fill="none" xmlns="http://www.w3.org/2000/svg">
<g clip-path="url(#clip0_1_3963)">
<g filter="url(#filter0_d_1_3963)">
<path d="M26.2324 6.07463C25.5117 4.79269 24.7296 4.55689 23.1372 4.46722C21.5464 4.35929 17.5461 4.31445 14.0805 4.31445C10.6084 4.31445 6.60644 4.35929 5.0173 4.46556C3.42816 4.55689 2.64438 4.79103 1.91707 6.07463C1.1748 7.35491 0.792877 9.56011 0.792877 13.4425C0.792877 13.4458 0.792877 13.4474 0.792877 13.4474C0.792877 13.4508 0.792877 13.4524 0.792877 13.4524V13.4557C0.792877 17.3215 1.1748 19.5433 1.91707 20.8103C2.64438 22.0922 3.4265 22.3247 5.01564 22.4326C6.60644 22.5256 10.6084 22.5804 14.0805 22.5804C17.5461 22.5804 21.5464 22.5256 23.1388 22.4343C24.7313 22.3264 25.5134 22.0939 26.2341 20.812C26.983 19.545 27.3616 17.3232 27.3616 13.4574C27.3616 13.4574 27.3616 13.4524 27.3616 13.4491C27.3616 13.4491 27.3616 13.4458 27.3616 13.4441C27.3616 9.56011 26.983 7.35491 26.2324 6.07463ZM10.7561 18.4291V8.46581L19.0589 13.4474L10.7561 18.4291Z" fill="#808080"/>
</g>
</g>
<defs>
<filter id="filter0_d_1_3963" x="-3.20712" y="4.31445" width="34.5687" height="26.2659" filterUnits="userSpaceOnUse" color-interpolation-filters="sRGB">
<feFlood flood-opacity="0" result="BackgroundImageFix"/>
<feColorMatrix in="SourceAlpha" type="matrix" values="0 0 0 0 0 0 0 0 0 0 0 0 0 0 0 0 0 0 127 0" result="hardAlpha"/>
<feOffset dy="4"/>
<feGaussianBlur stdDeviation="2"/>
<feComposite in2="hardAlpha" operator="out"/>
<feColorMatrix type="matrix" values="0 0 0 0 0 0 0 0 0 0 0 0 0 0 0 0 0 0 0.25 0"/>
<feBlend mode="normal" in2="BackgroundImageFix" result="effect1_dropShadow_1_3963"/>
<feBlend mode="normal" in="SourceGraphic" in2="effect1_dropShadow_1_3963" result="shape"/>
</filter>
<clipPath id="clip0_1_3963">
<rect width="26.5687" height="26.5687" fill="white" transform="translate(0.792877 0.163086)"/>
</clipPath>
</defs>
</svg>
